<svg width="30" height="30" viewBox="0 0 30 30" fill="none" xmlns="http://www.w3.org/2000/svg">
<path d="M13.4417 0.0552168C7.62877 0.703975 2.71782 4.62601 0.819474 10.1228C0.241715 11.8095 0 13.2604 0 15.071C0 19.0343 1.46798 22.691 4.17991 25.4865C5.39438 26.7369 6.62064 27.6274 8.22422 28.4177C9.33847 28.9721 10.0518 29.2375 11.1071 29.5088C13.6422 30.1517 16.136 30.1635 18.618 29.5442C19.4375 29.3378 19.5907 29.2729 19.8619 28.9957C20.1508 28.7126 20.2805 28.3883 20.2805 27.9695C20.2805 27.2677 19.803 26.672 19.125 26.5305C18.8184 26.4656 18.73 26.4774 18.0697 26.6425C17.0144 26.9079 16.3541 27.0023 15.3283 27.0436C9.66272 27.2559 4.57491 23.4341 3.15409 17.8961C1.49746 11.4262 5.42975 4.81474 11.9325 3.14567C18.3998 1.48838 25.0087 5.42811 26.6771 11.9275C27.4848 15.0828 26.9778 18.4328 25.2681 21.2637C24.8731 21.9125 24.7906 22.231 24.879 22.6792C25.0736 23.611 26.1465 24.1006 27.0073 23.6523C27.2549 23.5226 27.3846 23.3987 27.6086 23.0802C27.9977 22.5082 28.8997 20.668 29.1532 19.9249C30.1437 17.0409 30.2675 14.0507 29.5129 11.1313C29.2358 10.052 28.9705 9.34425 28.4163 8.21777C26.2055 3.70006 21.89 0.674486 16.8022 0.078808C16.0122 -0.0155569 14.1846 -0.0273525 13.4417 0.0552168Z" fill="#4B89AC"/>
<path d="M14.4499 6.28334C14.3084 6.33642 14.0785 6.48976 13.9429 6.62541C13.4948 7.06774 13.5007 7.04415 13.5007 10.4708V13.4963H10.4469C6.98619 13.4963 7.01567 13.4904 6.57351 13.9387C6.30821 14.2041 6.13135 14.6169 6.13135 14.9708C6.13135 15.3247 6.30821 15.7375 6.57351 16.0029C7.01567 16.4511 6.98619 16.4452 10.4469 16.4452H13.5007V19.5003C13.5007 22.9623 13.4948 22.9328 13.9429 23.3752C14.5206 23.9532 15.4285 23.9532 16.0063 23.3752C16.4544 22.9328 16.4485 22.9623 16.4485 19.5003V16.4452H19.4729C22.8981 16.4452 22.8746 16.4452 23.3167 16.0029C23.8945 15.4249 23.8945 14.5167 23.3167 13.9387C22.8746 13.4963 22.8981 13.4963 19.4729 13.4963H16.4485V10.4708C16.4485 7.04415 16.4485 7.06774 16.0063 6.62541C15.5995 6.21256 15.01 6.08871 14.4499 6.28334Z" fill="#4B89AC"/>
</svg>
