<svg width="20" height="20" viewBox="0 0 20 20" fill="none" xmlns="http://www.w3.org/2000/svg">
<path d="M3 0.0938101C2.63281 0.191466 2.36719 0.441466 2.22266 0.820373C2.16016 0.984435 2.14844 1.11725 2.14844 1.64069V2.26569H1.21094C0.230469 2.26569 0.0859375 2.28912 0.0234375 2.44147C0.0117188 2.47662 0 4.3399 0 6.58209C0 10.4024 0.00390625 10.6602 0.0703125 10.7383C0.105469 10.7813 0.191406 10.8321 0.261719 10.8438C0.363281 10.8633 0.40625 10.8477 0.484375 10.7696L0.585938 10.668V8.35944V6.05475H9.37109H18.1602L18.1719 6.94928C18.1836 7.76569 18.1914 7.85162 18.2578 7.92584C18.3516 8.03131 18.5664 8.03522 18.668 7.93365C18.7383 7.86334 18.7422 7.74225 18.7695 5.7774C18.7852 4.62897 18.7891 3.41412 18.7812 3.07428L18.7695 2.45319L18.6602 2.35944C18.5508 2.26569 18.5469 2.26569 17.5977 2.26569H16.6484L16.6328 1.5899C16.6211 1.00397 16.6094 0.894591 16.5352 0.738341C16.4297 0.503966 16.1758 0.25006 15.9414 0.144591C15.6836 0.0274038 15.2422 0.0274038 14.9961 0.148498C14.7461 0.269591 14.5391 0.480529 14.418 0.738341C14.3242 0.941466 14.3164 1.00397 14.3047 1.60944L14.2891 2.26569H9.39453H4.5L4.48438 1.60944C4.46875 1.03912 4.45703 0.933654 4.37891 0.761779C4.23047 0.425841 3.92969 0.171935 3.58594 0.0859976C3.35938 0.0274038 3.23438 0.0313101 3 0.0938101ZM3.53125 0.679748C3.60156 0.710998 3.71094 0.800841 3.77344 0.882873L3.88672 1.0274V2.3399C3.88672 3.51178 3.87891 3.66412 3.82031 3.7774C3.60156 4.17584 3.03906 4.18365 2.81641 3.78912C2.73828 3.6485 2.73438 3.5899 2.73438 2.35553C2.73438 0.886779 2.73828 0.871154 3.04688 0.710998C3.24609 0.609435 3.35156 0.605529 3.53125 0.679748ZM15.7266 0.707091C15.8477 0.765685 15.9141 0.832091 15.9727 0.953185C16.0508 1.10944 16.0547 1.18756 16.0547 2.35553C16.0547 3.73444 16.0469 3.7774 15.8047 3.9649C15.6953 4.04694 15.6172 4.07037 15.4688 4.07428C15.2578 4.07819 15.1289 4.00787 14.9844 3.81256C14.9062 3.711 14.9023 3.64459 14.8906 2.50787C14.8828 1.84772 14.8906 1.23444 14.9023 1.14459C14.9414 0.871154 15.2031 0.628966 15.4648 0.62506C15.5195 0.62506 15.6367 0.660216 15.7266 0.707091ZM2.14844 3.28131C2.14844 3.60553 2.16797 3.75787 2.22266 3.9024C2.53125 4.7149 3.54688 4.92975 4.14844 4.30865C4.38672 4.06647 4.45703 3.84772 4.48047 3.31647L4.50391 2.85162H9.39453H14.2891L14.3047 3.30865C14.3242 3.84772 14.3984 4.06256 14.6562 4.32428C15.2148 4.89459 16.1719 4.72272 16.5312 3.98834C16.6055 3.8399 16.6211 3.73053 16.6328 3.32819L16.6484 2.85162H17.4062H18.1641V4.16022V5.46881L9.38672 5.461L0.605469 5.44928L0.59375 4.1485L0.585938 2.85162H1.36719H2.14844V3.28131Z" fill="#846A97"/>
<path d="M3.125 7.47266C2.94531 7.56641 2.92969 7.64844 2.92969 8.68359C2.92969 9.69531 2.94922 9.83594 3.10547 9.89844C3.14062 9.91016 3.63281 9.92188 4.19922 9.92188C5.15234 9.92188 5.23047 9.91797 5.3164 9.84766L5.41015 9.77344L5.42187 8.71875L5.43359 7.66406L5.33593 7.55469L5.24218 7.44141L4.23047 7.42969C3.47266 7.42188 3.19922 7.43359 3.125 7.47266ZM4.84375 8.69141V9.33594H4.17969H3.51562V8.69141V8.04688H4.17969H4.84375V8.69141Z" fill="#846A97"/>
<path d="M6.61328 7.46094C6.41016 7.54297 6.40235 7.60547 6.41406 8.73047C6.42578 9.77344 6.42578 9.77344 6.51953 9.84766C6.60547 9.91797 6.6836 9.92188 7.66016 9.92188C8.65625 9.92188 8.71484 9.91797 8.78906 9.84375C8.83203 9.80078 8.875 9.72656 8.88672 9.67969C8.89844 9.62891 8.90625 9.14453 8.89844 8.60547C8.88672 7.64063 8.88672 7.61719 8.79688 7.53125C8.71094 7.44141 8.69141 7.44141 7.70313 7.4336C7.15235 7.42969 6.66016 7.44141 6.61328 7.46094ZM8.32031 8.69141V9.33594H7.65625H6.99219V8.69141V8.04688H7.65625H8.32031V8.69141Z" fill="#846A97"/>
<path d="M10.0938 7.46094C9.89063 7.54297 9.88281 7.59766 9.88281 8.70313V9.73047L9.98047 9.82422L10.0742 9.92188H11.1328C12.1328 9.92188 12.1914 9.91797 12.2656 9.84375C12.3086 9.80078 12.3516 9.72656 12.3633 9.67969C12.375 9.62891 12.3828 9.14453 12.375 8.60547C12.3633 7.64063 12.3633 7.61719 12.2734 7.53125C12.1875 7.44141 12.168 7.44141 11.1797 7.4336C10.6289 7.42969 10.1367 7.44141 10.0938 7.46094ZM11.7969 8.69141V9.33594H11.1328H10.4688V8.69141V8.04688H11.1328H11.7969V8.69141Z" fill="#846A97"/>
<path d="M13.5469 7.46484C13.4922 7.48828 13.4297 7.53516 13.4102 7.57031C13.3945 7.60547 13.3711 8.05469 13.3594 8.56641L13.3398 9.5L12.9688 9.625C12.3203 9.84766 11.7461 10.1797 11.1953 10.6484C10.8945 10.9062 10.8086 11.0508 10.8672 11.2148C10.9062 11.332 11.0859 11.4258 11.2031 11.3906C11.2461 11.375 11.4023 11.2578 11.5469 11.1289C12.3164 10.4492 13.2188 10.0586 14.2656 9.95312C15.0977 9.86719 15.9453 10.0234 16.7383 10.4062C17.9922 11.0117 18.9062 12.1328 19.2656 13.5078C19.375 13.9258 19.3867 14.0195 19.3867 14.6094C19.3906 15.3008 19.3438 15.6133 19.1523 16.1719C18.7695 17.2891 17.9531 18.2422 16.8711 18.8242C16.3281 19.1172 15.7812 19.2734 15.0781 19.3398C13.7109 19.4688 12.3594 18.9727 11.3633 17.9727C10.8359 17.4492 10.4648 16.8594 10.2344 16.1914C9.8125 14.9766 9.89062 13.7422 10.4688 12.543C10.7188 12.0312 10.7305 11.9258 10.5742 11.8164C10.3555 11.6641 10.1836 11.7852 9.9375 12.2734C9.62891 12.8867 9.42188 13.6875 9.38672 14.4141C9.35547 15.043 9.4375 15.6016 9.67188 16.3945L9.69531 16.4844H5.14062H0.585938V14.0625V11.6367L0.488281 11.543C0.367188 11.418 0.21875 11.418 0.0976562 11.543L0 11.6367V14.25C0 16.8359 0 16.8672 0.0820312 16.9688L0.160156 17.0703H5.05859H9.95703L10.0977 17.3125C10.8516 18.6055 12.0898 19.4961 13.6133 19.8477C14.1602 19.9727 15.1445 19.9727 15.7305 19.8477C17.3398 19.5078 18.6211 18.5391 19.4062 17.0703C19.9492 16.0586 20.1328 14.6523 19.875 13.5156C19.7266 12.8555 19.3945 12.1133 19.0078 11.5742L18.75 11.2148V10C18.75 8.83984 18.7461 8.78516 18.6719 8.71094C18.5664 8.60547 18.3555 8.60938 18.2578 8.71484C18.1914 8.78906 18.1836 8.875 18.1719 9.71094L18.1602 10.625L17.8867 10.4141C17.3828 10.0312 16.707 9.69531 16.1172 9.53516L15.8789 9.47266L15.8594 8.54688C15.8398 7.64844 15.8359 7.61719 15.75 7.53125C15.6641 7.44141 15.6445 7.44141 14.6562 7.43359C14.0586 7.42969 13.6094 7.44141 13.5469 7.46484ZM15.2734 8.69141V9.33594H14.6094H13.9453V8.69141V8.04688H14.6094H15.2734V8.69141Z" fill="#846A97"/>
<path d="M3.02344 11.6055C2.95312 11.6836 2.94922 11.7617 2.94922 12.7617V13.8359L3.04297 13.9102C3.12891 13.9805 3.20703 13.9844 4.17969 13.9844C5.15234 13.9844 5.23047 13.9805 5.31641 13.9102L5.41016 13.8359V12.7617C5.41016 11.7617 5.40625 11.6836 5.33594 11.6055C5.26172 11.5273 5.23047 11.5234 4.17969 11.5234C3.12891 11.5234 3.09766 11.5273 3.02344 11.6055ZM4.84375 12.7539V13.3984H4.17969H3.51562V12.7539V12.1094H4.17969H4.84375V12.7539Z" fill="#846A97"/>
<path d="M6.48444 11.6289C6.40631 11.7305 6.40241 11.7656 6.41413 12.7852L6.42584 13.8359L6.51959 13.9102C6.60553 13.9805 6.68366 13.9844 7.65631 13.9844C8.62897 13.9844 8.70709 13.9805 8.79303 13.9102L8.88678 13.8359V12.7617C8.88678 11.7617 8.88287 11.6836 8.81256 11.6055C8.73834 11.5273 8.70709 11.5234 7.65241 11.5234H6.56647L6.48444 11.6289ZM8.32037 12.7539V13.3984H7.65631H6.99225V12.7539V12.1094H7.65631H8.32037V12.7539Z" fill="#846A97"/>
<path d="M16.4649 12.3633C16.3789 12.3945 16.3008 12.4219 16.2891 12.4219C16.2813 12.4219 15.7617 12.9297 15.1367 13.5547L14.0039 14.6875L13.5938 14.2734C13.1094 13.7852 12.9609 13.6992 12.6367 13.6992C12.2774 13.6992 11.9844 13.8828 11.8164 14.2148C11.7305 14.3828 11.7305 14.7383 11.8125 14.9414C11.8555 15.0391 12.1445 15.3594 12.6445 15.8672C13.4922 16.7187 13.6563 16.8359 14.0039 16.8359C14.3828 16.8359 14.4688 16.7656 16.0586 15.168C17.6406 13.5781 17.6328 13.5898 17.6289 13.1797C17.625 12.8242 17.3789 12.4805 17.0391 12.3672C16.8203 12.293 16.668 12.2891 16.4649 12.3633ZM16.9649 13.0039C17.0039 13.043 17.0391 13.1289 17.0391 13.1992C17.043 13.3164 16.9219 13.4492 15.582 14.7891C14.2266 16.1484 14.1133 16.25 13.9883 16.25C13.8633 16.25 13.7852 16.1836 13.0977 15.4961C12.3672 14.7656 12.3438 14.7383 12.3438 14.5859C12.3438 14.3516 12.5195 14.2227 12.7266 14.3008C12.7852 14.3242 13.0703 14.5781 13.3633 14.8672C13.7969 15.2969 13.9141 15.3906 14.0039 15.3906C14.1016 15.3906 14.3008 15.207 15.332 14.1836C15.9961 13.5195 16.5781 12.957 16.6211 12.9336C16.7188 12.8828 16.8711 12.9102 16.9649 13.0039Z" fill="#846A97"/>
</svg>
