<svg width="28" height="25" viewBox="0 0 28 25" fill="none" xmlns="http://www.w3.org/2000/svg">
<path d="M26.5653 0.045475C26.1127 0.15485 25.6944 0.391829 25.2556 0.79287C25.043 0.987314 21.5664 4.68784 17.5207 9.01422C13.475 13.3406 10.0807 16.9621 9.97784 17.0533L9.7927 17.2295L7.35155 14.7078C5.82241 13.1219 4.79384 12.1132 4.58812 11.9856C3.43612 11.2868 1.91383 11.3719 0.871543 12.2043C0.652115 12.3805 0.4464 12.6358 0.268114 12.9396C0.00068492 13.4075 0.000684929 13.4135 0.000684929 14.1123C0.000684929 15.2061 -0.150172 15.0116 4.02583 19.3259C5.98698 21.3614 7.73555 23.154 7.91384 23.312C8.10584 23.4882 8.43498 23.6948 8.74356 23.8285C9.23727 24.0472 9.27156 24.0533 10.0464 24.0533C10.7938 24.0533 10.8556 24.0411 11.2807 23.8588C11.5413 23.7434 11.8704 23.5307 12.083 23.3423C12.323 23.1236 14.7641 19.812 19.8384 12.812C23.9116 7.19738 27.3402 2.43349 27.4567 2.2269C28.2316 0.859711 27.779 -0.240116 26.5653 0.045475Z" fill="#512D6D"/>
</svg>
