<svg width="22" height="22" viewBox="0 0 22 22" fill="none" xmlns="http://www.w3.org/2000/svg">
<path d="M1.49102 1.49101L1.453 1.52915C0.673921 2.31053 0.674858 3.57525 1.45509 4.35548L4.06914 6.96953L6.6854 9.58579C7.46645 10.3668 7.46644 11.6332 6.6854 12.4142L4.06914 15.0305L1.45509 17.6445C0.674859 18.4248 0.673921 19.6895 1.453 20.4709L1.49102 20.509L1.52915 20.547C2.31053 21.3261 3.57525 21.3251 4.35548 20.5449L6.96953 17.9309L9.58579 15.3146C10.3668 14.5336 11.6332 14.5336 12.4142 15.3146L15.0305 17.9309L17.6445 20.5449C18.4248 21.3251 19.6895 21.3261 20.4709 20.547L20.509 20.509L20.547 20.4709C21.3261 19.6895 21.3251 18.4248 20.5449 17.6445L17.9309 15.0305L15.3146 12.4142C14.5336 11.6332 14.5336 10.3668 15.3146 9.58579L17.9309 6.96953L20.5449 4.35548C21.3251 3.57525 21.3261 2.31053 20.547 1.52915L20.509 1.49101L20.4709 1.453C19.6895 0.673922 18.4248 0.674858 17.6445 1.45509L15.0305 4.06914L12.4142 6.6854C11.6332 7.46645 10.3668 7.46644 9.58579 6.6854L6.96953 4.06914L4.35548 1.45509C3.57525 0.674858 2.31053 0.673922 1.52915 1.453L1.49102 1.49101Z" fill="#FD6F96"/>
</svg>
