<svg width="176" height="45" viewBox="0 0 176 45" fill="none" xmlns="http://www.w3.org/2000/svg">
<path d="M1.87675 26.6719C1.7791 26.6914 1.63261 26.7207 1.4373 26.7598C1.24199 26.7988 1.03691 26.8086 0.822067 26.7891C0.607224 26.7695 0.421677 26.7109 0.265427 26.6133C0.0896454 26.5156 0.00175476 26.3496 0.00175476 26.1152C0.00175476 25.9785 0.0310516 25.8809 0.0896454 25.8223C0.148239 25.7637 0.245895 25.6758 0.382614 25.5586C0.812302 25.207 1.17363 24.7578 1.4666 24.2109C1.7791 23.6445 2.0623 23.0488 2.31621 22.4238C2.57011 21.7793 2.83379 21.1445 3.10722 20.5195C3.40019 19.875 3.73222 19.2988 4.10332 18.791C4.47441 18.2832 4.9334 17.873 5.48027 17.5605C6.02715 17.248 6.70097 17.1016 7.50175 17.1211C7.83379 17.1211 8.20488 17.1992 8.61504 17.3555C9.02519 17.5117 9.40605 17.7266 9.75761 18C10.1092 18.2539 10.4021 18.5664 10.6365 18.9375C10.8709 19.3086 10.9881 19.7188 10.9881 20.168C11.0857 20.3242 10.9881 20.5488 10.6951 20.8418C10.4217 21.1348 10.0408 21.457 9.55254 21.8086C9.06425 22.1406 8.50761 22.4922 7.88261 22.8633C7.27715 23.2148 6.69121 23.5469 6.1248 23.8594C5.5584 24.1719 5.06035 24.4453 4.63066 24.6797C4.20097 24.9141 3.91777 25.0898 3.78105 25.207C3.6834 25.4023 3.60527 25.627 3.54668 25.8809C3.48808 26.1348 3.43925 26.3789 3.40019 26.6133C3.38066 26.8281 3.36113 27.0332 3.3416 27.2285C3.3416 27.4043 3.3416 27.541 3.3416 27.6387C3.3416 28.0098 3.32207 28.4199 3.283 28.8691C3.26347 29.3184 3.283 29.748 3.3416 30.1582C3.41972 30.5488 3.58574 30.8809 3.83965 31.1543C4.09355 31.4082 4.52324 31.5352 5.12871 31.5352C5.77324 31.5352 6.37871 31.3789 6.94511 31.0664C7.51152 30.7344 8.03886 30.334 8.52715 29.8652C9.01543 29.3965 9.45488 28.8887 9.8455 28.3418C10.2557 27.7949 10.617 27.2871 10.9295 26.8184C11.2615 26.3301 11.5545 25.9297 11.8084 25.6172C12.0623 25.3047 12.2771 25.1484 12.4529 25.1484C12.6482 25.1484 12.8533 25.1875 13.0682 25.2656C13.3025 25.3242 13.4197 25.4805 13.4197 25.7344C13.4197 26.0859 13.2732 26.5059 12.9803 26.9941C12.7068 27.4824 12.3357 28 11.867 28.5469C11.4178 29.0938 10.8904 29.6406 10.285 30.1875C9.69902 30.7148 9.10332 31.1934 8.49785 31.623C7.89238 32.0332 7.29668 32.375 6.71074 32.6484C6.1248 32.9023 5.60722 33.0293 5.158 33.0293C4.2791 33.0293 3.61504 32.8145 3.16582 32.3848C2.7166 31.9551 2.39433 31.418 2.19902 30.7734C2.02324 30.1289 1.92558 29.4453 1.90605 28.7227C1.90605 27.9805 1.89629 27.2969 1.87675 26.6719ZM7.26738 18.7617C6.93535 18.7617 6.58379 18.9277 6.21269 19.2598C5.8416 19.5723 5.49004 19.9629 5.158 20.4316C4.8455 20.8809 4.58183 21.3496 4.36699 21.8379C4.17168 22.3066 4.07402 22.6973 4.07402 23.0098C4.36699 23.0098 4.78691 22.9023 5.33379 22.6875C5.90019 22.4531 6.45683 22.1699 7.00371 21.8379C7.55058 21.5059 8.0291 21.1543 8.43925 20.7832C8.84941 20.4121 9.05449 20.0605 9.05449 19.7285C9.05449 19.5527 8.98613 19.4062 8.84941 19.2891C8.71269 19.1719 8.54668 19.0742 8.35136 18.9961C8.17558 18.918 7.99004 18.8594 7.79472 18.8203C7.59941 18.7812 7.42363 18.7617 7.26738 18.7617ZM25.6049 32.2383C25.5072 31.7305 25.4193 31.125 25.3412 30.4219C25.2826 29.6992 25.2143 28.9766 25.1361 28.2539C25.058 27.5117 24.9603 26.8184 24.8432 26.1738C24.7455 25.5293 24.5893 25.002 24.3744 24.5918C23.3783 26.623 22.4994 28.2246 21.7377 29.3965C20.976 30.5488 20.3021 31.3789 19.7162 31.8867C19.1498 32.375 18.6713 32.6094 18.2807 32.5898C17.89 32.5703 17.5678 32.3945 17.3139 32.0625C17.06 31.7305 16.8744 31.3105 16.7572 30.8027C16.6596 30.2754 16.5912 29.7871 16.5521 29.3379C16.5521 28.9082 16.6498 28.3027 16.8451 27.5215C17.0404 26.7402 17.3041 25.8906 17.6361 24.9727C17.9682 24.0352 18.3588 23.0879 18.808 22.1309C19.2768 21.1738 19.7748 20.3047 20.3021 19.5234C20.8295 18.7422 21.3764 18.0977 21.9428 17.5898C22.5092 17.082 23.0756 16.8281 23.642 16.8281C24.4818 16.6914 25.0971 16.877 25.4877 17.3848C25.8978 17.873 25.976 18.7031 25.7221 19.875C25.7221 21.1641 25.7709 22.2676 25.8686 23.1855C25.9857 24.1035 26.1029 24.9824 26.2201 25.8223C26.3568 26.6621 26.474 27.541 26.5717 28.459C26.6889 29.377 26.7475 30.4805 26.7475 31.7695C26.7475 32.0039 26.7182 32.209 26.6596 32.3848C26.6205 32.541 26.3861 32.6191 25.9564 32.6191C25.8978 32.6191 25.8197 32.5703 25.7221 32.4727C25.6439 32.375 25.6049 32.2969 25.6049 32.2383ZM24.0228 19.1426C23.808 18.8301 23.515 18.8008 23.1439 19.0547C22.7728 19.3086 22.3822 19.7285 21.9721 20.3145C21.5619 20.9004 21.142 21.6035 20.7123 22.4238C20.2826 23.2441 19.8822 24.0742 19.5111 24.9141C19.14 25.7539 18.8178 26.5547 18.5443 27.3164C18.2709 28.0586 18.0853 28.6738 17.9877 29.1621C17.9877 29.8652 18.0951 30.2656 18.31 30.3633C18.5248 30.4414 18.7885 30.3242 19.101 30.0117C19.4135 29.6992 19.765 29.25 20.1557 28.6641C20.5658 28.0781 20.9564 27.4531 21.3275 26.7891C21.7182 26.125 22.0795 25.4805 22.4115 24.8555C22.7631 24.2305 23.0365 23.7227 23.2318 23.332C23.4076 22.9219 23.5443 22.541 23.642 22.1895C23.7396 21.8379 23.8178 21.5059 23.8764 21.1934C23.9545 20.8613 23.9936 20.5293 23.9936 20.1973C24.0131 19.8652 24.0228 19.5137 24.0228 19.1426ZM32.9853 32.5605C32.9853 32.5801 33.1904 32.4629 33.6006 32.209C34.0303 31.9551 34.5283 31.623 35.0947 31.2129C35.6807 30.7832 36.2764 30.3242 36.8818 29.8359C37.4873 29.3281 37.9853 28.8496 38.376 28.4004C38.7666 27.9512 38.9717 27.5703 38.9912 27.2578C39.0303 26.9258 38.7666 26.7109 38.2002 26.6133C37.4971 26.5156 36.9014 26.5254 36.4131 26.6426C35.9443 26.7598 35.5146 26.8965 35.124 27.0527C34.7334 27.209 34.3623 27.3555 34.0107 27.4922C33.6787 27.6289 33.3076 27.6777 32.8975 27.6387C32.0381 27.6387 31.4424 27.375 31.1103 26.8477C30.7978 26.3008 30.6416 25.5684 30.6416 24.6504C30.6416 23.7324 30.8467 22.8633 31.2568 22.043C31.667 21.2031 32.1943 20.4805 32.8389 19.875C33.4834 19.2695 34.2256 18.791 35.0654 18.4395C35.9053 18.0684 36.7646 17.8828 37.6436 17.8828C37.9951 17.8828 38.2978 17.9121 38.5518 17.9707C38.8057 18.0293 38.9326 18.2539 38.9326 18.6445C38.9326 18.918 38.8154 19.1816 38.5811 19.4355C38.3467 19.6699 38.083 19.7871 37.79 19.7871C37.7705 19.7871 37.7217 19.7773 37.6436 19.7578C37.5654 19.7188 37.4873 19.6699 37.4092 19.6113C37.3311 19.5527 37.2529 19.5137 37.1748 19.4941C37.0967 19.4551 37.0478 19.4355 37.0283 19.4355C36.4033 19.2598 35.7978 19.3477 35.2119 19.6992C34.626 20.0508 34.0986 20.5293 33.6299 21.1348C33.1807 21.7207 32.8193 22.3652 32.5459 23.0684C32.2725 23.752 32.1357 24.3672 32.1357 24.9141C32.1357 25.1289 32.1748 25.3047 32.2529 25.4414C32.3506 25.5586 32.4678 25.6465 32.6045 25.7051C32.7607 25.7637 32.9268 25.8027 33.1025 25.8223C33.2978 25.8223 33.4932 25.8223 33.6885 25.8223C34.0791 25.8223 34.4697 25.7637 34.8603 25.6465C35.2705 25.5293 35.6611 25.3926 36.0322 25.2363C36.4228 25.0801 36.8135 24.9434 37.2041 24.8262C37.6143 24.709 38.0342 24.6504 38.4639 24.6504C38.6592 24.6504 38.874 24.709 39.1084 24.8262C39.3428 24.9238 39.5576 25.0801 39.7529 25.2949C39.9482 25.4902 40.1143 25.7246 40.251 25.998C40.3877 26.252 40.4658 26.5352 40.4853 26.8477C40.6025 27.1211 40.5635 27.4824 40.3682 27.9316C40.1924 28.3809 39.9189 28.8594 39.5478 29.3672C39.1768 29.875 38.7275 30.3926 38.2002 30.9199C37.6728 31.4277 37.1455 31.8965 36.6182 32.3262C36.0908 32.7363 35.5732 33.0684 35.0654 33.3223C34.5576 33.5957 34.1279 33.7227 33.7764 33.7031C33.3857 33.7031 33.1514 33.5859 33.0732 33.3516C33.0146 33.1172 32.9853 32.8535 32.9853 32.5605ZM51.5865 32.8828L44.0279 20.7832C44.0084 20.7637 43.9889 20.6953 43.9693 20.5781C43.9498 20.4414 43.94 20.334 43.94 20.2559C43.94 20.002 43.9791 19.7871 44.0572 19.6113C44.1549 19.416 44.3893 19.3184 44.7603 19.3184C44.8385 19.3184 44.9752 19.3672 45.1705 19.4648C45.3658 19.543 45.483 19.6211 45.5221 19.6992C45.9518 20.3828 46.3912 21.1445 46.8404 21.9844C47.3092 22.8242 47.7877 23.6641 48.276 24.5039C48.7838 25.3438 49.3111 26.1543 49.858 26.9355C50.4049 27.6973 50.9811 28.3516 51.5865 28.8984L52.2896 17.4141C52.3092 17.4141 52.358 17.4141 52.4361 17.4141C52.5338 17.3945 52.6021 17.3848 52.6412 17.3848C52.817 17.3848 52.9928 17.4141 53.1686 17.4727C53.3443 17.5117 53.4713 17.6387 53.5494 17.8535C53.5689 18.5566 53.5689 19.4258 53.5494 20.4609C53.5494 21.4961 53.5299 22.5605 53.4908 23.6543C53.4713 24.748 53.442 25.8027 53.4029 26.8184C53.3834 27.8145 53.3639 28.6152 53.3443 29.2207C53.3248 29.6113 53.2857 30.1973 53.2271 30.9785C53.1881 31.7598 53.1295 32.6387 53.0514 33.6152C52.9928 34.6113 52.9146 35.6562 52.817 36.75C52.7389 37.8438 52.6607 38.8789 52.5826 39.8555C52.5045 40.832 52.4361 41.7109 52.3775 42.4922C52.3189 43.293 52.2701 43.8691 52.2311 44.2207H50.7076L51.5865 32.8828Z" fill="#512D6D"/>
<path d="M74.8939 15.3C77.0606 16.0667 78.1439 17.8333 78.1439 20.6V26.4C78.1439 30.8 76.0773 33 71.9439 33H59.0939V0.649999H71.5439C75.6773 0.649999 77.7439 2.85 77.7439 7.25V10.2C77.7439 12.8667 76.7939 14.5667 74.8939 15.3ZM69.7939 5.4H66.0939V14.05H69.7939C70.0606 14.05 70.2773 13.95 70.4439 13.75C70.6439 13.55 70.7439 13.3167 70.7439 13.05V6.4C70.7439 6.13333 70.6439 5.9 70.4439 5.7C70.2773 5.5 70.0606 5.4 69.7939 5.4ZM71.1439 27.2V19.95C71.1439 19.6833 71.0439 19.45 70.8439 19.25C70.6773 19.05 70.4606 18.95 70.1939 18.95H66.0939V28.2H70.1939C70.4606 28.2 70.6773 28.1 70.8439 27.9C71.0439 27.7 71.1439 27.4667 71.1439 27.2ZM91.9721 0.649999H98.9721V26.9C98.9721 31.3 96.9054 33.5 92.7721 33.5H86.5721C82.4387 33.5 80.3721 31.3 80.3721 26.9V0.649999H87.3721V27.5C87.3721 27.7667 87.4554 28 87.6221 28.2C87.8221 28.4 88.0554 28.5 88.3221 28.5H91.0221C91.2887 28.5 91.5054 28.4 91.6721 28.2C91.8721 28 91.9721 27.7667 91.9721 27.5V0.649999ZM114.112 0.649999C118.245 0.649999 120.312 2.85 120.312 7.25V26.4C120.312 30.8 118.245 33 114.112 33H101.262V0.649999H114.112ZM113.312 27.2V6.4C113.312 6.13333 113.212 5.9 113.012 5.7C112.845 5.5 112.629 5.4 112.362 5.4H108.262V28.2H112.362C112.629 28.2 112.845 28.1 113.012 27.9C113.212 27.7 113.312 27.4667 113.312 27.2ZM132.479 20.15V15H141.729V26.9C141.729 31.3 139.663 33.5 135.529 33.5H129.229C125.096 33.5 123.029 31.3 123.029 26.9V6.75C123.029 2.35 125.096 0.15 129.229 0.15H135.529C139.663 0.15 141.729 2.35 141.729 6.75V9.8H135.079V5.9C135.079 5.63333 134.979 5.4 134.779 5.2C134.613 5 134.396 4.9 134.129 4.9H130.979C130.713 4.9 130.479 5 130.279 5.2C130.113 5.4 130.029 5.63333 130.029 5.9V27.7C130.029 27.9667 130.113 28.2 130.279 28.4C130.479 28.6 130.713 28.7 130.979 28.7H134.129C134.396 28.7 134.613 28.6 134.779 28.4C134.979 28.2 135.079 27.9667 135.079 27.7V20.15H132.479ZM150.088 27.2H157.838V33H143.088V0.649999H157.838V6.35H150.088V13.95H157.338V19.45H150.088V27.2ZM157.537 6.6V0.649999H175.037V6.6H169.787V33H162.787V6.6H157.537Z" fill="#7868E6"/>
</svg>
