<svg width="47" height="48" viewBox="0 0 47 48" fill="none" xmlns="http://www.w3.org/2000/svg">
<path d="M0.468158 0.134451C-0.00917956 0.40066 0.00917956 0.143631 0 8.24001C0 13.9038 0.0275387 15.8499 0.110155 16.0243C0.339644 16.5292 0.367183 16.5292 4.94778 16.5292C8.02294 16.5292 9.23464 16.5016 9.40905 16.419C9.76706 16.2538 9.91393 15.8958 9.91393 15.1522V14.5096H10.4188C10.8502 14.5096 10.9971 14.5647 11.4928 14.886L12.0711 15.2532L12.117 19.3565C12.1629 23.3404 12.1721 23.4689 12.3649 23.8269C12.5944 24.2583 13.0442 24.699 13.494 24.9376C13.7969 25.1029 14.1549 25.112 19.323 25.1396C23.3712 25.1579 24.895 25.1396 25.0877 25.057C25.2254 24.9927 25.3999 24.8367 25.4733 24.6898C25.6936 24.2767 25.6477 23.983 25.2989 23.6341L24.9868 23.322H21.4618H17.9369L17.7349 22.6886C17.2484 21.1924 16.0459 19.9898 14.5771 19.5492L13.9529 19.3565V17.8143V16.2629L14.7607 16.6118C15.7154 17.034 17.3402 17.5664 18.3867 17.8051C19.8187 18.1448 22.9948 18.6588 23.6007 18.6496H24.1973L24.6196 19.1453C24.8583 19.4299 25.2254 19.8063 25.4457 19.9898C26.2444 20.66 27.7682 21.2107 28.8238 21.2107C30.2375 21.2107 31.9265 20.4305 32.8628 19.3473C33.2759 18.8608 33.7808 17.9612 33.9736 17.3553C34.2673 16.4557 34.249 15.0604 33.9368 14.1608C33.6064 13.197 33.1841 12.5544 32.4589 11.8751C31.4216 10.9204 30.2283 10.4431 28.8238 10.4431C27.4194 10.4431 26.1801 10.9388 25.1704 11.8935L24.5462 12.4718L22.3981 11.2876C21.214 10.6359 20.1491 9.9933 20.039 9.86479C19.6443 9.42417 19.8095 8.64391 20.3511 8.36852C20.498 8.29508 23.2518 8.26754 30.1273 8.26754H39.7108L39.9127 8.90093C40.3993 10.4064 41.5559 11.563 43.0705 12.0495L43.6947 12.2515V15.804V19.3565L43.0797 19.5492C41.6018 19.9898 40.3993 21.1924 39.9127 22.6886L39.7108 23.322H36.1858H32.6609L32.3488 23.6341C32 23.983 31.9541 24.2767 32.1744 24.6898C32.2478 24.8367 32.4222 24.9927 32.5599 25.057C32.7527 25.1396 34.2765 25.1579 38.3247 25.1396C43.7682 25.112 43.8324 25.112 44.1996 24.9101C44.631 24.6806 45.0717 24.2308 45.3103 23.781C45.4756 23.4781 45.4847 23.0742 45.5123 15.9876C45.5398 7.48728 45.5765 7.93708 44.8054 7.166C44.0435 6.40409 44.3281 6.43163 37.2782 6.43163H31.0728L28.6861 4.58654C26.1985 2.66801 25.6293 2.28247 24.7848 1.96118C23.6557 1.52057 23.8944 1.52975 16.7343 1.49303L9.91393 1.46549V1.0983C9.91393 0.630148 9.72116 0.253786 9.40905 0.116093C9.05105 -0.049139 0.771083 -0.0307808 0.468158 0.134451ZM8.07802 8.26754V14.6932H4.95696H1.83591V8.26754V1.84185H4.95696H8.07802V8.26754ZM23.9036 3.55843C24.6379 3.84299 24.8858 4.00823 26.5565 5.27501L28.0068 6.38573L24.0321 6.43163L20.0573 6.47753L19.5341 6.73456C18.9191 7.03748 18.506 7.46892 18.1939 8.15739C18.0011 8.58883 17.9736 8.75406 18.0103 9.40581C18.0562 10.2962 18.2949 10.7919 18.9374 11.3427C19.1486 11.5263 20.4612 12.3157 21.8474 13.0776C24.6288 14.6198 24.7848 14.7483 24.7848 15.4919C24.7848 16.2905 24.2799 16.8045 23.4905 16.8045C22.9397 16.8045 19.1761 16.1344 18.1113 15.8499C16.2111 15.3266 14.1273 14.3995 12.4016 13.2888L11.4469 12.6737H10.6758H9.91393V7.99216V3.3014L16.6425 3.32894C23.3253 3.35648 23.362 3.35648 23.9036 3.55843ZM43.5111 8.45114C43.6672 8.60719 43.6947 8.75406 43.6947 9.46089C43.6947 9.97494 43.658 10.287 43.6029 10.287C43.4377 10.287 42.8227 9.9474 42.5106 9.6812C42.2168 9.43335 41.6752 8.59801 41.6752 8.3777C41.6752 8.29508 41.9047 8.26754 42.5014 8.26754C43.2082 8.26754 43.3551 8.29508 43.5111 8.45114ZM29.9162 12.4534C31.1922 12.8573 32.0734 13.8946 32.3121 15.2716C32.716 17.5664 30.5404 19.7236 28.2547 19.3014C27.4744 19.1545 26.7951 18.7873 26.2536 18.2182L25.7946 17.7409L26.1067 17.2819C26.7125 16.3823 26.786 15.0788 26.2994 14.0782L26.0424 13.555L26.4463 13.197C27.3918 12.3433 28.7045 12.0587 29.9162 12.4534ZM14.5129 21.4861C15.1371 21.8074 15.9724 22.7988 15.9724 23.2302C15.9724 23.2853 15.6603 23.322 15.1463 23.322C14.0264 23.322 13.9529 23.2486 13.9529 22.1287C13.9529 21.6146 13.9897 21.3025 14.0447 21.3025C14.0998 21.3025 14.3109 21.3851 14.5129 21.4861ZM43.6947 22.1287C43.6947 22.8355 43.6672 22.9824 43.5111 23.1384C43.3551 23.2945 43.2082 23.322 42.5014 23.322C41.9873 23.322 41.6752 23.2853 41.6752 23.2302C41.6752 22.808 42.5014 21.8166 43.1164 21.4953C43.6855 21.1924 43.6947 21.2107 43.6947 22.1287Z" fill="#446491"/>
<path d="M37.7646 15.1888C37.425 15.5285 37.3699 15.8314 37.581 16.2446C38.0125 17.0708 39.2886 16.7036 39.2886 15.7396C39.2886 15.3908 38.747 14.8767 38.3705 14.8767C38.1594 14.8767 37.9941 14.9593 37.7646 15.1888Z" fill="#446491"/>
<path d="M28.218 23.634C27.8783 23.9737 27.8232 24.2766 28.0344 24.6898C28.4659 25.516 29.742 25.1488 29.742 24.1848C29.742 23.836 29.2003 23.3219 28.8239 23.3219C28.6128 23.3219 28.4475 23.4045 28.218 23.634Z" fill="#446491"/>
<path d="M31.6976 30.528C30.7796 30.6932 30.1922 30.8951 29.2467 31.3817C28.1635 31.9416 27.2914 32.6484 26.3643 33.7225L25.6024 34.6037L22.5089 34.6312C19.553 34.6588 19.397 34.6679 18.9839 34.8607C18.3781 35.1361 17.6712 35.8246 17.3775 36.4396C17.1572 36.8802 17.1205 37.0638 17.1205 37.7523C17.1205 38.2021 17.1021 38.5601 17.0837 38.5601C17.0746 38.5601 16.7624 38.404 16.3953 38.2204C15.8261 37.9267 15.3763 37.5136 12.8887 35.0535C9.57484 31.7764 9.50141 31.7213 8.17037 31.7213C7.51862 31.7213 7.30749 31.7672 6.87605 31.9692C6.15086 32.2996 5.65517 32.7861 5.30634 33.493C5.03096 34.0437 5.00342 34.1906 5.00342 34.8883C5.0126 36.2285 5.07685 36.3203 8.24381 39.5056C9.74008 41.011 11.2822 42.5073 11.6586 42.8194C13.366 44.2422 14.9633 45.0409 17.2581 45.61L18.222 45.8487L27.6586 45.8762C36.8657 45.9129 37.086 45.9129 37.086 46.0873C37.086 46.1791 37.1319 46.3719 37.1962 46.5004C37.4257 47.0053 37.4532 47.0053 42.043 47.0053C46.6328 47.0053 46.6603 47.0053 46.8898 46.5004C46.9724 46.326 47 44.3799 47 38.7345C47 30.5647 47.0183 30.8309 46.4951 30.5922C46.3207 30.5096 45.109 30.4821 42.0338 30.4821C38.4262 30.4821 37.7745 30.5004 37.545 30.6198C37.3889 30.7024 37.2696 30.7942 37.2696 30.8309C37.2696 30.8768 37.2145 30.9778 37.1503 31.0604C37.0493 31.2072 36.985 31.1981 36.2782 30.941C34.837 30.4178 33.148 30.2618 31.6976 30.528ZM35.0206 32.4465C35.3235 32.5291 35.911 32.7586 36.3333 32.9697L37.086 33.3369V38.6978V44.0678H28.1635C18.3505 44.0678 18.222 44.0586 16.588 43.517C15.6334 43.1958 14.541 42.6542 13.724 42.1126C13.0172 41.6444 7.09636 35.7695 6.92195 35.3748C6.74754 34.9709 6.75672 34.6679 6.97703 34.2457C7.27995 33.6582 7.98678 33.3736 8.60181 33.6123C8.7395 33.6582 10.0338 34.8699 11.475 36.2927C12.9162 37.7247 14.3666 39.0833 14.7062 39.322C15.4314 39.836 16.5789 40.396 17.5335 40.6806C18.2128 40.8917 18.2679 40.8917 24.409 40.9284L30.5961 40.9559L30.8623 40.7081C31.1377 40.4327 31.2111 39.9187 31.0183 39.5515C30.7888 39.12 30.642 39.1109 25.0883 39.1109C20.0487 39.1109 19.8651 39.1017 19.5714 38.9273C19.1124 38.6427 18.8921 38.2296 18.938 37.7064C18.9839 37.1831 19.2134 36.8343 19.654 36.614C19.9294 36.4671 20.2966 36.4488 23.0596 36.4488C24.7579 36.4488 26.2449 36.4121 26.3643 36.3662C26.4928 36.3203 26.9518 35.8521 27.3924 35.3289C28.3746 34.1814 28.6775 33.8969 29.522 33.3369C30.2381 32.8596 30.9265 32.575 31.8537 32.3639C32.5972 32.1986 34.2312 32.2445 35.0206 32.4465ZM45.164 38.7437V45.1694H42.043H38.9219V38.7437V32.318H42.043H45.164V38.7437Z" fill="#446491"/>
</svg>
