<svg width="30" height="30" viewBox="0 0 30 30" fill="none" xmlns="http://www.w3.org/2000/svg">
<path d="M13.3594 0.0548897C7.58203 0.699421 2.70117 4.59591 0.814453 10.0568C0.240234 11.7326 0 13.174 0 14.9729C0 18.9104 1.45898 22.5432 4.1543 25.3205C5.36133 26.5627 6.58008 27.4475 8.17383 28.2326C9.28125 28.7834 9.99023 29.0471 11.0391 29.3166C13.5586 29.9553 16.0371 29.967 18.5039 29.3518C19.3184 29.1467 19.4707 29.0822 19.7402 28.8068C20.0273 28.5256 20.1562 28.2033 20.1562 27.7873C20.1562 27.09 19.6816 26.4982 19.0078 26.3576C18.7031 26.2932 18.6152 26.3049 17.959 26.469C16.9102 26.7326 16.2539 26.8264 15.2344 26.8674C9.60352 27.0783 4.54688 23.2815 3.13477 17.7795C1.48828 11.3518 5.39648 4.78341 11.8594 3.1252C18.2871 1.47872 24.8555 5.39278 26.5137 11.8498C27.3164 14.9846 26.8125 18.3127 25.1133 21.1252C24.7207 21.7697 24.6387 22.0861 24.7266 22.5315C24.9199 23.4572 25.9863 23.9436 26.8418 23.4982C27.0879 23.3693 27.2168 23.2463 27.4395 22.9299C27.8262 22.3615 28.7227 20.5334 28.9746 19.7951C29.959 16.9299 30.082 13.9592 29.332 11.0588C29.0566 9.98653 28.793 9.28341 28.2422 8.16426C26.0449 3.67598 21.7559 0.670124 16.6992 0.0783272C15.9141 -0.0154228 14.0977 -0.0271416 13.3594 0.0548897Z" fill="white"/>
<path d="M14.3613 6.24243C14.2207 6.29517 13.9922 6.44751 13.8574 6.58228C13.4121 7.02173 13.418 6.99829 13.418 10.4026V13.4084H10.3828C6.94336 13.4084 6.97266 13.4026 6.5332 13.8479C6.26953 14.1116 6.09375 14.5217 6.09375 14.8733C6.09375 15.2249 6.26953 15.635 6.5332 15.8987C6.97266 16.344 6.94336 16.3381 10.3828 16.3381H13.418V19.3733C13.418 22.8127 13.4121 22.7834 13.8574 23.2229C14.4316 23.7971 15.334 23.7971 15.9082 23.2229C16.3535 22.7834 16.3477 22.8127 16.3477 19.3733V16.3381H19.3535C22.7578 16.3381 22.7344 16.3381 23.1738 15.8987C23.748 15.3245 23.748 14.4221 23.1738 13.8479C22.7344 13.4084 22.7578 13.4084 19.3535 13.4084H16.3477V10.4026C16.3477 6.99829 16.3477 7.02173 15.9082 6.58228C15.5039 6.17212 14.918 6.04907 14.3613 6.24243Z" fill="white"/>
</svg>
