<svg width="48" height="48" viewBox="0 0 48 48" fill="none" xmlns="http://www.w3.org/2000/svg">
<path d="M23.9474 1.05689C23.8145 1.09363 23.435 1.26814 23.103 1.43346L22.4863 1.74575L21.7652 1.49776C20.9018 1.20385 20.769 1.19466 20.361 1.43346C19.7253 1.81004 19.4976 2.93977 19.8202 4.14299C19.991 4.77674 20.7215 6.29223 21.3572 7.3393C21.7083 7.92713 21.7652 8.08327 21.6608 8.14757C21.4521 8.27615 21.3857 8.2486 20.9587 7.87202C20.0384 7.05457 19.0422 6.76066 17.211 6.76984C15.6835 6.77903 15.1901 6.678 14.2224 6.20039C13.3685 5.77789 13.2072 5.7687 12.8941 6.0718C12.3912 6.55859 12.6853 7.02702 13.8239 7.54137C14.896 8.03735 15.5032 8.14757 17.23 8.16594C18.6627 8.18431 18.8145 8.20267 19.2509 8.41393C19.6968 8.62518 20.6266 9.36915 20.6266 9.51611C20.6266 9.55285 20.2756 9.60795 19.8486 9.63551C17.5431 9.79165 15.6171 10.5632 14.4311 11.8031C13.7575 12.5104 13.5487 12.9329 13.7005 13.2819C13.8239 13.5758 14.2508 13.787 14.5449 13.6952C14.6493 13.6676 14.9529 13.3737 15.2091 13.0523C15.9491 12.1521 16.86 11.6194 18.3021 11.2612C18.7196 11.1602 19.4122 11.05 19.8581 11.0224L20.6741 10.9765L20.4274 11.1877C20.2946 11.3071 19.6968 11.7939 19.1086 12.2715C14.9529 15.6607 11.8789 20.0052 10.7119 24.1567C10.3134 25.5712 10.1806 26.4713 10.1236 28.0878L10.0667 29.6217L9.39306 29.5757C8.1976 29.4931 8.10272 29.4655 8.10272 29.2084C8.10272 28.3174 7.40062 27.3622 6.59416 27.151C6.3285 27.0867 5.49357 27.0591 4.17477 27.0775C2.17284 27.105 2.17284 27.105 1.71742 27.3622C1.47074 27.5 1.14815 27.7939 1.00583 27.996L0.749663 28.3817L0.7212 36.8777C0.702224 42.8386 0.7212 45.4838 0.797102 45.7318C0.929932 46.1819 1.41381 46.7054 1.8882 46.9075C2.22027 47.0545 2.54286 47.082 4.41196 47.082C6.47082 47.082 6.57518 47.0728 6.97367 46.8708C7.4955 46.6044 7.96989 45.9431 8.06477 45.3736C8.11221 45.043 8.15965 44.9603 8.28299 44.9971C8.36838 45.0154 10.1141 45.64 12.1635 46.384C14.8486 47.3484 16.1294 47.7709 16.7366 47.8719C17.4577 47.9913 18.5488 48.0005 23.8715 47.9821C30.0386 47.9454 30.1809 47.9454 30.9209 47.7433C31.3384 47.6331 32.0215 47.3759 32.439 47.183C32.8564 46.9902 35.5035 45.4196 38.3214 43.6836C41.1393 41.9569 44.128 40.1199 44.9629 39.6147C46.6802 38.5677 47.1071 38.2278 47.4582 37.5757C47.6764 37.1808 47.7144 37.0063 47.7144 36.2898C47.7144 35.5734 47.6764 35.3989 47.4582 35.004C47.1641 34.4529 46.6233 33.911 46.1014 33.6446C45.7978 33.4793 45.5606 33.4426 44.868 33.4426C44.1185 33.4426 43.9192 33.4793 43.2551 33.7548C42.8376 33.9202 42.4391 34.0763 42.3822 34.1039C42.3063 34.1314 42.3537 33.9477 42.4961 33.6446C42.8376 32.8915 43.1792 31.6883 43.3594 30.5769C43.5682 29.2726 43.5018 26.7927 43.2171 25.4518C42.5435 22.283 40.9401 19.1326 38.5396 16.2853C37.6003 15.174 37.2208 14.8433 36.8793 14.8433C36.4903 14.8433 36.1867 15.1188 36.1867 15.4771C36.1867 15.6791 36.3574 15.9363 36.8603 16.5058C39.4315 19.3898 41.1013 22.4483 41.7845 25.5528C42.0691 26.8479 42.145 29.2635 41.9363 30.5034C41.6801 32.0097 40.8452 34.113 40.1905 34.9305C40.0956 35.0499 38.3404 35.8398 35.6933 36.9695C33.3024 37.989 31.3289 38.8157 31.3004 38.8157C31.272 38.8157 31.253 38.5769 31.2435 38.2829C31.2245 36.2439 29.716 34.4345 27.7046 34.0487C27.4389 33.9936 25.3895 33.7457 23.1409 33.4977C18.1219 32.9374 18.1029 32.9282 15.6076 31.5321C14.3742 30.8524 13.8144 30.6044 12.6094 30.2187C11.7081 29.934 11.6607 29.9064 11.5847 29.6125C11.4424 29.1257 11.5847 26.6642 11.803 25.6355C12.8087 20.9971 15.8922 16.57 20.8638 12.6389C21.5375 12.1062 21.5849 12.0879 21.7842 12.2164C22.6855 12.7675 26.4522 13.0982 28.7862 12.8226C29.8298 12.694 30.9399 12.4093 31.3953 12.1338L31.7653 11.9225L32.7046 12.6757C34.1468 13.8146 34.3081 13.9248 34.5358 13.9248C34.8394 13.9248 35.1335 13.6493 35.1999 13.3002C35.2569 13.0155 35.2189 12.9604 34.716 12.5104C34.4124 12.2348 33.7957 11.7296 33.3308 11.3898L32.4959 10.7561L32.4864 10.159C32.4769 9.50692 32.2967 9.01094 31.8887 8.54251L31.6325 8.2486L32.1448 7.45871C33.1411 5.92484 33.8242 4.37261 33.957 3.34391C34.0709 2.46217 33.6819 1.58961 33.0652 1.34162C32.7521 1.22221 32.4864 1.26814 31.623 1.58042L31.1866 1.74575L30.437 1.38754C29.7824 1.07526 29.6021 1.02934 29.0234 1.02934C28.4446 1.02015 28.2643 1.06607 27.6571 1.36917C27.2681 1.55287 26.8886 1.70901 26.8032 1.70901C26.7273 1.70901 26.3478 1.55287 25.9588 1.36917C25.2187 1.02015 24.4502 0.900745 23.9474 1.05689ZM25.4939 2.69178C26.0632 2.97651 26.2814 3.03162 26.8032 3.03162C27.3535 3.04081 27.5148 2.99488 28.1125 2.69178C28.492 2.50809 28.9 2.35195 29.0328 2.35195C29.1562 2.35195 29.5642 2.50809 29.9342 2.69178C30.494 2.97651 30.6932 3.03162 31.1866 3.02244C31.5187 3.02244 31.9361 2.95815 32.1448 2.8663C32.3536 2.78363 32.5339 2.73771 32.5623 2.76526C32.6762 2.87548 32.3726 3.97766 32.012 4.76756C31.6799 5.49315 30.7407 7.10968 30.3611 7.60566C30.2758 7.71588 29.8393 7.83528 28.8716 8.0098C27.6476 8.23023 27.363 8.2486 26.177 8.19349C24.7633 8.13838 23.5109 7.93632 23.3117 7.75262C23.046 7.48626 21.7462 5.19924 21.4711 4.51957C21.1864 3.79396 21.0062 3.04081 21.0726 2.83874C21.101 2.76526 21.2149 2.77445 21.4616 2.87548C21.6513 2.95815 22.0688 3.02244 22.3819 3.03162C22.8658 3.04081 23.065 2.9857 23.6627 2.70097C24.0517 2.50809 24.4692 2.35195 24.5925 2.35195C24.7064 2.35195 25.1144 2.50809 25.4939 2.69178ZM23.7576 9.33241C25.5224 9.69062 27.8374 9.67225 29.6116 9.2773C29.9437 9.20382 30.3232 9.17627 30.456 9.20382C30.9684 9.33241 31.2435 10.2601 30.9114 10.7561C30.7217 11.0316 30.2093 11.1969 28.8146 11.4082C26.8696 11.7021 23.1599 11.4449 22.3914 10.9581C21.8695 10.6275 21.879 9.73654 22.4009 9.33241C22.695 9.11197 22.6475 9.11197 23.7576 9.33241ZM6.44235 28.6664L6.67955 28.8869V30.9718C6.67955 32.9925 6.68904 33.066 6.88828 33.2772C7.13496 33.5344 7.52396 33.5528 7.82757 33.314C8.04579 33.1486 8.05528 33.066 8.08375 31.9822L8.1217 30.8249L8.46326 30.8708C8.65301 30.8892 9.14638 30.9351 9.55436 30.9627C11.2052 31.0821 12.7518 31.6056 15.0668 32.8364C16.86 33.7824 17.8088 34.1682 18.805 34.361C19.213 34.4345 21.2623 34.6825 23.3781 34.9121C25.4939 35.1417 27.4389 35.3897 27.6951 35.4632C28.4351 35.6745 29.0613 36.1888 29.4503 36.9236C29.7539 37.5022 29.7824 37.6125 29.7824 38.3932V39.229L25.9114 39.2749C22.2111 39.3208 22.0308 39.33 21.898 39.4953C21.7083 39.7525 21.7367 40.1291 21.9454 40.3863L22.1257 40.6067L26.3004 40.6343C30.2093 40.6526 30.5035 40.6434 30.9399 40.4873C31.1866 40.3863 32.847 39.6882 34.6212 38.9351C44.2798 34.8111 44.1849 34.8478 44.7257 34.8019C45.1621 34.7652 45.295 34.7927 45.5701 34.9764C46.0445 35.2887 46.2627 35.6285 46.3102 36.1245C46.3671 36.694 46.1773 37.1532 45.7599 37.4655C45.0388 37.9799 32.1543 45.8237 31.6799 46.0258C30.3706 46.5952 30.5794 46.5768 23.4255 46.5768C16.9169 46.5768 16.879 46.5768 16.2622 46.3748C15.9207 46.2646 13.9472 45.5573 11.8789 44.8134L8.10272 43.454V39.7066C8.10272 35.5551 8.09323 35.4908 7.52396 35.3714C7.30574 35.3254 7.16343 35.353 6.97367 35.4908L6.72699 35.6653L6.67955 40.524C6.65109 43.1968 6.62262 45.392 6.60365 45.4012C6.59416 45.4104 6.51826 45.4838 6.43287 45.5573C6.30952 45.6859 5.98694 45.7043 4.35503 45.7043C2.46696 45.7043 2.41952 45.7043 2.2772 45.5022C2.14437 45.3185 2.1254 44.3633 2.1254 37.0522V28.8134L2.33413 28.6205C2.52388 28.446 2.65671 28.4368 4.37401 28.4368C6.20516 28.4368 6.21465 28.4368 6.44235 28.6664Z" fill="#446491"/>
<path d="M26.4427 15.3025C26.1391 15.4219 26.0347 15.6791 26.0347 16.3496V16.9558L25.5983 17.0568C25.3611 17.1211 24.9151 17.3232 24.6115 17.5253C23.5963 18.1774 23.0271 19.3347 23.1125 20.5746C23.1978 21.787 23.8335 22.5677 25.2947 23.2658L26.0252 23.6148L26.0347 26.3519V29.0889L25.5888 29.0338C25.3326 29.0063 24.7918 28.8134 24.3743 28.6113C23.9569 28.4184 23.5015 28.2531 23.3497 28.2531C22.7614 28.2531 22.4957 28.9879 22.9512 29.392C23.3591 29.7594 24.4123 30.2003 25.2377 30.3473L26.0347 30.4942V31.1463C26.0347 31.7158 26.0632 31.826 26.2529 32.0005C26.547 32.2669 26.936 32.2577 27.2207 31.973C27.4294 31.7801 27.4579 31.6699 27.4579 31.0729V30.4024L27.9323 30.283C28.5015 30.1452 29.3839 29.6033 29.8014 29.144C30.5699 28.299 30.9114 27.3438 30.8545 26.2049C30.7786 24.5884 29.8488 23.5138 27.9607 22.8708L27.4579 22.7055V20.5195C27.4579 18.7193 27.4769 18.3335 27.5907 18.3335C27.7899 18.3335 28.3972 18.5999 28.7767 18.8479C29.2036 19.1326 29.4978 19.1234 29.7824 18.8387C30.067 18.5723 30.086 18.2509 29.8298 17.9386C29.5831 17.6355 28.4351 17.0752 27.8848 16.9925L27.4579 16.9374V16.3955C27.4579 15.7618 27.3345 15.4495 27.0119 15.3117C26.7463 15.1923 26.7273 15.1923 26.4427 15.3025ZM26.0347 20.2623V22.1085L25.826 21.9983C24.8487 21.5023 24.5167 21.0706 24.5167 20.3083C24.5167 19.5918 24.8772 18.9765 25.5129 18.5999C26.0347 18.2784 26.0347 18.2692 26.0347 20.2623ZM28.1695 24.4506C29.0518 24.8547 29.4503 25.4701 29.4503 26.4529C29.4503 27.4724 28.7767 28.4644 27.8184 28.8501L27.4579 28.9879V26.5999C27.4579 24.9741 27.4863 24.2118 27.5622 24.2118C27.6097 24.2118 27.8943 24.3128 28.1695 24.4506Z" fill="#446491"/>
</svg>
