<svg width="47" height="47" viewBox="0 0 47 47" fill="none" xmlns="http://www.w3.org/2000/svg">
<path d="M19.8871 0.0867996C16.3443 0.611397 13.343 3.21565 12.2783 6.68174C11.4522 9.37966 11.8836 12.4804 13.4164 14.7943C13.912 15.5437 14.94 16.6584 15.6467 17.183C15.9588 17.4266 16.1332 17.614 16.0598 17.6327C15.9863 17.6608 15.7018 17.7451 15.4265 17.8294C14.6096 18.0917 14.3342 18.4945 14.6096 19.0098C14.784 19.3564 15.0777 19.3845 15.9221 19.1315C19.3364 18.1198 22.9252 18.1105 26.2386 19.0847C26.7617 19.2346 27.2574 19.3376 27.34 19.3095C27.6612 19.1878 27.8172 18.9723 27.8172 18.6163C27.8172 18.1854 27.6337 18.0261 26.8994 17.8201C26.6241 17.7451 26.3395 17.6608 26.2661 17.6327C26.1743 17.6046 26.2569 17.5109 26.4956 17.3423C27.1656 16.8833 27.9825 16.0964 28.4689 15.4406C29.0104 14.7099 28.9737 14.7193 29.9374 14.9816L30.2587 15.0659L30.1302 15.7872C30.0568 16.2556 30.02 16.9114 30.0476 17.5952C30.1118 19.3751 30.6166 20.5742 31.7456 21.6421C32.7552 22.5883 34.0126 23.066 35.5271 23.0567C36.812 23.0473 37.5188 22.7944 38.1888 22.1105C38.5284 21.7545 38.7946 21.3611 38.9689 20.9489C39.125 20.6023 39.2718 20.3119 39.3085 20.3119C39.437 20.3119 40.3824 21.7639 40.7495 22.5133C40.9515 22.9255 41.2176 23.5438 41.337 23.8998C41.6031 24.6586 41.8785 25.0801 42.2731 25.3611C42.4384 25.4736 43.1267 25.7546 43.8059 25.9888C44.7421 26.3073 45.1093 26.4759 45.3112 26.6914L45.5774 26.9724V29.1176V31.2629L45.302 31.5533C45.0817 31.7875 44.7146 31.9467 43.2093 32.4432C42.1079 32.8085 41.2544 33.1458 41.0708 33.2863C40.9056 33.4174 40.4925 33.942 40.1713 34.4479C39.125 36.0685 37.6381 37.5018 35.9125 38.551C34.7102 39.2817 34.4257 39.4972 34.3339 39.7407C34.288 39.8719 34.0218 41.2021 33.7465 42.7009C33.4711 44.1998 33.2141 45.4644 33.1866 45.5113C33.1499 45.5675 32.4064 45.605 31.3417 45.605C29.5795 45.605 29.552 45.605 29.4693 45.3895C29.4235 45.2771 29.2582 44.5089 29.1022 43.6846C28.7167 41.5581 28.5515 41.3894 27.138 41.5674C25.4217 41.7923 23.4208 41.8578 21.6035 41.7548C19.1988 41.6049 19.2447 41.5674 18.8225 43.8719C18.6664 44.6869 18.5012 45.4082 18.4461 45.4832C18.2993 45.6518 14.94 45.6612 14.8115 45.4925C14.7564 45.427 14.4995 44.2092 14.2333 42.7946C13.9671 41.3801 13.6918 40.0967 13.6183 39.9562C13.5449 39.8063 13.3613 39.6189 13.2053 39.5346C10.8556 38.2138 8.89148 36.2091 7.81761 34.0076C7.40459 33.1739 6.92731 31.6657 6.74375 30.6165C6.54182 29.5204 6.51429 26.7007 6.69785 25.6515C7.33116 21.895 9.01998 19.1971 12.0121 17.1924C12.9116 16.5929 13.0493 16.3868 12.8932 15.9184C12.8474 15.7872 12.6821 15.6186 12.5353 15.5437C12.2875 15.4219 12.2324 15.4313 11.801 15.6655C10.4426 16.4336 8.83641 17.8763 7.87268 19.1971C6.59689 20.9395 5.88098 22.6726 5.36699 25.2487C5.29357 25.6141 5.17425 25.4829 5.11918 24.9864C4.91725 23.2815 3.412 21.9232 2.12703 22.2791C1.3377 22.4946 0.557535 23.5157 0.557535 24.3307C0.557535 25.3049 1.45701 26.1199 2.97144 26.504L3.42118 26.6164L2.97144 27.0754C2.42074 27.6562 1.82415 27.9654 0.988918 28.134C0.0435477 28.3214 -0.240981 28.7617 0.208758 29.3518C0.392325 29.5954 0.429038 29.6048 1.10824 29.5673C1.69565 29.5485 1.91593 29.483 2.51252 29.1832C3.29268 28.7898 4.31148 27.8436 4.6419 27.216C4.76122 26.9911 4.88972 26.8694 5.00904 26.8694C5.18343 26.8694 5.1926 26.9162 5.16507 27.5532C5.11918 28.3869 5.28439 30.2886 5.47713 31.2629C5.81673 32.9491 6.54182 34.7289 7.51473 36.2372C8.43256 37.6517 10.36 39.4503 12.0397 40.462L12.4435 40.7056L12.8841 43.085C13.1319 44.3965 13.3889 45.6424 13.4623 45.8579C13.6275 46.3263 14.0956 46.7759 14.5729 46.9165C14.8023 46.9914 15.6009 47.0101 16.8491 46.9914C18.6756 46.9633 18.7949 46.9539 19.1162 46.7478C19.6393 46.42 19.7954 46.064 20.0891 44.5277L20.3552 43.1225L20.7591 43.1319C23.4392 43.2162 26.0275 43.1412 27.4501 42.9539C27.5511 42.9351 27.6245 43.16 27.7438 43.8251C28.0926 45.7267 28.1936 46.0734 28.4689 46.4012C28.9554 46.9633 29.2674 47.0289 31.4978 46.9914L33.4803 46.9633L33.8658 46.701C34.1228 46.5324 34.3155 46.2982 34.4257 46.0452C34.5174 45.8298 34.8111 44.4715 35.0773 43.0194L35.5638 40.3871L36.0227 40.1248C38.2255 38.8789 40.2447 36.9585 41.5113 34.9163C41.8785 34.3261 41.7683 34.3823 43.9711 33.661C45.9996 32.9959 46.4309 32.6868 46.8164 31.6657C46.9816 31.2254 47 30.9537 47 29.1176C47 27.2815 46.9816 27.0099 46.8164 26.5696C46.4585 25.6234 45.9628 25.2394 44.3842 24.7148C43.705 24.4899 43.1084 24.237 42.9982 24.1152C42.8881 24.0122 42.6495 23.5157 42.4751 23.0286C41.9519 21.6421 41.2452 20.4711 40.0245 18.9817L39.7491 18.6444L39.896 17.8107C40.0887 16.7521 40.1713 14.0823 40.0336 13.3329C39.8868 12.5272 39.5013 11.7872 39.1066 11.553C38.253 11.0565 36.1237 11.5436 32.7368 13.0144C32.0301 13.3235 31.3509 13.642 31.2499 13.7076C31.1031 13.8013 30.9654 13.82 30.7451 13.7544C30.5707 13.7076 30.2587 13.6233 30.0568 13.5764L29.6713 13.4734L29.9007 12.8926C30.1853 12.1806 30.479 10.7848 30.479 10.1197C30.479 9.52955 30.2679 9.25788 29.8089 9.25788C29.35 9.25788 29.1848 9.50145 29.1022 10.3164C28.7901 13.1268 27.1748 15.5249 24.7609 16.7615L24.0541 17.1268L22.5856 17.0144C21.4475 16.9301 20.8142 16.9301 19.7403 17.0238C18.3544 17.1362 18.3544 17.1362 17.8679 16.9114C15.7661 15.9278 14.1415 13.9699 13.4807 11.6467C13.3063 11.0097 13.2696 10.6912 13.2787 9.49208C13.2879 8.24616 13.3154 7.99323 13.5265 7.26254C13.9488 5.85737 14.5821 4.78007 15.5825 3.75898C19.2079 0.0493317 25.3666 0.845592 28.0008 5.35151C28.5332 6.26955 28.8544 6.43817 29.3225 6.06346C29.6988 5.76369 29.6437 5.39835 29.0839 4.4803C28.166 2.95335 26.4772 1.46387 24.8526 0.770653C23.2831 0.0961685 21.4934 -0.147392 19.8871 0.0867996ZM38.5743 13.0706C38.6569 13.3235 38.6936 13.9512 38.6844 15.2064C38.6844 16.6678 38.6477 17.1549 38.4825 17.9512C38.2255 19.169 37.7941 20.3868 37.4453 20.874C36.9405 21.5765 35.8575 21.8576 34.6459 21.5953C33.0122 21.2393 31.9383 20.2276 31.5345 18.6725C31.2683 17.614 31.4243 15.5062 31.8006 15.0753C31.975 14.8786 33.8291 14.0261 35.215 13.5109C36.3439 13.0893 37.6656 12.7333 38.1154 12.724C38.4182 12.724 38.4641 12.7521 38.5743 13.0706ZM2.99898 23.778C3.30186 23.9747 3.76996 24.7803 3.76996 25.0988C3.76996 25.2581 3.74242 25.2581 3.18254 25.0988C2.44828 24.8927 1.98936 24.6211 1.95264 24.3681C1.91593 24.1433 2.34731 23.5906 2.54924 23.5906C2.63184 23.5906 2.82459 23.6749 2.99898 23.778Z" fill="#446491"/>
<path d="M21.227 4.59271C21.1628 4.65829 21.1169 4.79881 21.1169 4.91122C21.1169 5.07047 21.0435 5.12668 20.7773 5.18289C19.8227 5.35151 19.0977 6.00725 18.9049 6.85972C18.6479 8.0588 19.217 9.04242 20.4836 9.55765L21.071 9.80121L21.0985 11.2626L21.1261 12.7333L20.8691 12.6678C20.4285 12.5553 20.0706 12.3867 19.7034 12.0776C19.2812 11.731 18.9783 11.7029 18.7856 11.9933C18.29 12.7052 19.2445 13.6701 20.6121 13.8387C21.0251 13.8856 21.071 13.923 21.0985 14.1572C21.1628 14.7006 21.8512 14.6818 21.8512 14.1385C21.8512 13.9043 21.8971 13.8575 22.2458 13.7732C23.54 13.4359 24.2559 12.1713 23.9714 10.738C23.9071 10.457 23.7603 10.0822 23.6409 9.91363C23.3564 9.52018 22.7048 9.05179 22.2275 8.88317L21.8512 8.76139V7.5061C21.8512 6.0822 21.8328 6.1103 22.6772 6.44754C22.9342 6.55059 23.2187 6.6349 23.3105 6.6349C23.5767 6.6349 23.797 6.31639 23.7603 5.96978C23.7419 5.70748 23.6685 5.6138 23.3381 5.43582C23.1086 5.30467 22.7231 5.19225 22.4019 5.16415C21.9154 5.11731 21.8512 5.08921 21.8512 4.91122C21.8512 4.66766 21.686 4.4803 21.484 4.4803C21.4014 4.4803 21.2913 4.52714 21.227 4.59271ZM21.2087 7.38432V8.50846L20.7498 8.27426C20.2358 8.01196 20.0889 7.78714 20.0706 7.28127C20.0614 6.88783 20.2725 6.58806 20.7039 6.39133C21.2087 6.16651 21.2087 6.16651 21.2087 7.38432ZM22.2091 10.3258C22.6956 10.6443 22.9342 11.2532 22.7782 11.7872C22.668 12.1806 22.2183 12.6303 21.9338 12.6303C21.7686 12.6303 21.7594 12.5553 21.7594 11.3656C21.7594 10.6724 21.7777 10.101 21.8053 10.101C21.8328 10.101 22.0164 10.204 22.2091 10.3258Z" fill="#446491"/>
<path d="M35.1598 25.155C34.6733 25.7921 35.3709 27.2347 36.3713 27.6562C36.8394 27.8623 37.6838 27.8436 38.1428 27.6281C39.1432 27.1691 39.7857 25.7921 39.2901 25.155C38.9046 24.6585 38.0969 24.9583 38.0969 25.6141C38.0969 25.7265 37.9867 25.9513 37.8582 26.1106C37.6655 26.3541 37.5553 26.401 37.2249 26.401C36.8945 26.401 36.7844 26.3541 36.5916 26.1106C36.4539 25.9419 36.353 25.7077 36.353 25.5485C36.353 24.9208 35.5453 24.6585 35.1598 25.155Z" fill="#446491"/>
</svg>
